<svg width="60" height="60" viewBox="0 0 60 60" fill="none" xmlns="http://www.w3.org/2000/svg">
<path d="M54.2819 0.0747833H5.71807C2.56007 0.0747833 0 2.63712 0 5.79792V53.3516C0 56.5124 2.56007 59.0748 5.71807 59.0748H54.2819C57.4399 59.0748 60 56.5124 60 53.3516V5.79792C60 2.63712 57.4399 0.0747833 54.2819 0.0747833Z" fill="#8787FB"/>
<path d="M51.5718 5.16205H8.43817C7.38502 5.16205 6.37495 5.58072 5.63027 6.32606C4.88558 7.0714 4.46729 8.08237 4.46729 9.13645V49.9635C4.46729 51.0175 4.88558 52.0284 5.63027 52.7737C6.37495 53.5191 7.38502 53.9379 8.43817 53.9379H51.5718C52.625 53.9379 53.635 53.5191 54.3797 52.7737C55.1244 52.0284 55.5427 51.0175 55.5427 49.9635V9.1265C55.5401 8.07415 55.1206 7.06574 54.3762 6.32254C53.6318 5.57935 52.6232 5.16205 51.5718 5.16205ZM14.6327 45.8997C14.634 46.0519 14.6052 46.2027 14.5479 46.3437C14.4906 46.4847 14.4061 46.613 14.299 46.721C14.1919 46.8291 14.0645 46.9149 13.9242 46.9734C13.7838 47.032 13.6332 47.0621 13.4811 47.0621H11.3965C11.2444 47.0621 11.0938 47.032 10.9534 46.9734C10.813 46.9149 10.6857 46.8291 10.5786 46.721C10.4715 46.613 10.387 46.4847 10.3297 46.3437C10.2724 46.2027 10.2436 46.0519 10.2449 45.8997V32.5755C10.2435 32.4572 10.2657 32.3398 10.3101 32.2301C10.3544 32.1205 10.42 32.0208 10.5031 31.9367C10.5862 31.8526 10.6851 31.7858 10.7942 31.7403C10.9032 31.6947 11.0202 31.6712 11.1383 31.6712H13.7293C13.9689 31.6712 14.1987 31.7666 14.3681 31.9361C14.5375 32.1057 14.6327 32.3356 14.6327 32.5755V45.8997ZM23.4183 45.8997C23.4196 46.0519 23.3907 46.2027 23.3335 46.3437C23.2762 46.4847 23.1916 46.613 23.0845 46.721C22.9775 46.8291 22.8501 46.9149 22.7097 46.9734C22.5694 47.032 22.4188 47.0621 22.2667 47.0621H20.2812C20.1192 47.0634 19.9586 47.0325 19.8086 46.971C19.6587 46.9096 19.5225 46.8189 19.4079 46.7042C19.2933 46.5895 19.2027 46.4532 19.1413 46.3031C19.0799 46.153 19.049 45.9922 19.0503 45.83V23.7324C19.049 23.6141 19.0712 23.4968 19.1155 23.3872C19.1598 23.2775 19.2254 23.1778 19.3085 23.0937C19.3916 23.0096 19.4906 22.9427 19.5996 22.8972C19.7087 22.8516 19.8256 22.8282 19.9438 22.8282H22.5347C22.6534 22.8282 22.7709 22.8516 22.8805 22.8971C22.9901 22.9425 23.0896 23.0091 23.1735 23.0931C23.2574 23.177 23.3239 23.2766 23.3693 23.3863C23.4147 23.496 23.4382 23.6136 23.4382 23.7324L23.4183 45.8997ZM32.2038 45.8997C32.2051 46.0519 32.1764 46.2027 32.1191 46.3437C32.0618 46.4847 31.9772 46.613 31.8701 46.721C31.763 46.8291 31.6356 46.9149 31.4953 46.9734C31.3549 47.032 31.2044 47.0621 31.0524 47.0621H28.9576C28.8055 47.0621 28.6551 47.032 28.5147 46.9734C28.3743 46.9149 28.2469 46.8291 28.1399 46.721C28.0328 46.613 27.9481 46.4847 27.8909 46.3437C27.8336 46.2027 27.8048 46.0519 27.8061 45.8997V29.7636C27.8048 29.6453 27.8269 29.5279 27.8712 29.4183C27.9155 29.3087 27.9812 29.2089 28.0643 29.1248C28.1474 29.0407 28.2463 28.974 28.3553 28.9284C28.4644 28.8829 28.5814 28.8594 28.6996 28.8594H31.3005C31.5401 28.8594 31.7699 28.9546 31.9393 29.1242C32.1087 29.2937 32.2038 29.5238 32.2038 29.7636V45.8997ZM40.9796 45.8997C40.9809 46.0519 40.952 46.2027 40.8947 46.3437C40.8374 46.4847 40.7528 46.613 40.6457 46.721C40.5386 46.8291 40.4113 46.9149 40.2709 46.9734C40.1305 47.032 39.98 47.0621 39.828 47.0621H37.7433C37.5912 47.0621 37.4406 47.032 37.3002 46.9734C37.1599 46.9149 37.0325 46.8291 36.9254 46.721C36.8184 46.613 36.7338 46.4847 36.6765 46.3437C36.6192 46.2027 36.5904 46.0519 36.5917 45.8997V23.7324C36.5904 23.6141 36.6125 23.4968 36.6568 23.3872C36.7011 23.2775 36.7667 23.1778 36.8498 23.0937C36.9329 23.0096 37.0318 22.9427 37.1409 22.8972C37.2499 22.8516 37.367 22.8282 37.4852 22.8282H40.0762C40.1948 22.8282 40.3123 22.8516 40.4219 22.8971C40.5315 22.9425 40.631 23.0091 40.7149 23.0931C40.7988 23.177 40.8653 23.2766 40.9107 23.3863C40.9561 23.496 40.9796 23.6136 40.9796 23.7324V45.8997ZM49.7651 45.8997C49.7664 46.0519 49.7376 46.2027 49.6803 46.3437C49.623 46.4847 49.5384 46.613 49.4314 46.721C49.3243 46.8291 49.1969 46.9149 49.0566 46.9734C48.9162 47.032 48.7656 47.0621 48.6135 47.0621H46.5288C46.3768 47.0621 46.2262 47.032 46.0858 46.9734C45.9454 46.9149 45.818 46.8291 45.711 46.721C45.6039 46.613 45.5194 46.4847 45.4621 46.3437C45.4048 46.2027 45.3759 46.0519 45.3772 45.8997V12.9518C45.3759 12.8336 45.3981 12.7162 45.4424 12.6065C45.4868 12.4969 45.5523 12.3972 45.6354 12.3131C45.7185 12.229 45.8174 12.1622 45.9264 12.1166C46.0355 12.0711 46.1525 12.0476 46.2707 12.0476H48.8617C48.9803 12.0476 49.0978 12.0711 49.2074 12.1165C49.317 12.162 49.4166 12.2286 49.5005 12.3125C49.5843 12.3965 49.6509 12.4961 49.6963 12.6058C49.7417 12.7155 49.7651 12.8331 49.7651 12.9518V45.8997Z" fill="white"/>
</svg>
