<svg width="43" height="56" viewBox="0 0 43 56" fill="none" xmlns="http://www.w3.org/2000/svg">
<path d="M33.672 3.18835V28.7227C31.8173 28.3565 29.9066 28.3822 28.0624 28.7983C26.2182 29.2143 24.4814 30.0115 22.9636 31.1386C21.4458 32.2657 20.1805 33.6978 19.249 35.343C18.3175 36.9881 17.7404 38.8098 17.5548 40.6912C17.3691 42.5726 17.5791 44.472 18.1711 46.2675C18.7631 48.0629 19.7241 49.7148 20.9923 51.1168C22.2606 52.5188 23.8081 53.64 25.5354 54.4084C27.2627 55.1769 29.1316 55.5756 31.0221 55.5789C30.8548 55.6096 30.6849 55.6242 30.5147 55.6227H3.13228C2.30155 55.6227 1.50485 55.2927 0.917431 54.7053C0.330014 54.1179 0 53.3212 0 52.4904V3.20717C0 2.37643 0.330014 1.57973 0.917431 0.992315C1.50485 0.404898 2.30155 0.074884 3.13228 0.074884H30.5147C30.9266 0.0715817 31.335 0.149541 31.7167 0.304299C32.0984 0.459057 32.4459 0.687517 32.7391 0.976715C33.0324 1.26591 33.2658 1.61016 33.4259 1.98966C33.5859 2.36915 33.6696 2.77648 33.672 3.18835Z" fill="url(#paint0_linear_102_593)"/>
<path d="M31.047 28.4721V5.80692C31.047 4.97619 30.717 4.17948 30.1296 3.59207C29.5422 3.00465 28.7455 2.67464 27.9147 2.67464H5.73189C4.90116 2.67464 4.10446 3.00465 3.51704 3.59207C2.92962 4.17948 2.59961 4.97619 2.59961 5.80692V49.8468C2.59961 50.6776 2.92962 51.4743 3.51704 52.0617C4.10446 52.6491 4.90116 52.9791 5.73189 52.9791H23.1349C20.8135 51.3012 19.0835 48.9308 18.1934 46.2083C17.3033 43.4858 17.2988 40.5513 18.1805 37.8261C19.0622 35.1009 20.7848 32.7252 23.101 31.0401C25.4172 29.355 28.2078 28.4472 31.0721 28.4471L31.047 28.4721ZM12.5227 6.43965C12.3283 6.43965 12.1419 6.36244 12.0044 6.22499C11.867 6.08753 11.7898 5.90113 11.7898 5.70674V5.36843C11.7897 5.27247 11.8087 5.17743 11.8457 5.08885C11.8826 5.00027 11.9366 4.91988 12.0048 4.85232C12.0729 4.78476 12.1538 4.7314 12.2427 4.69525C12.3316 4.6591 12.4268 4.64089 12.5227 4.64172H21.0801C21.176 4.64089 21.2712 4.6591 21.3601 4.69525C21.449 4.7314 21.5299 4.78476 21.598 4.85232C21.6662 4.91988 21.7202 5.00027 21.7572 5.08885C21.7941 5.17743 21.8131 5.27247 21.8131 5.36843V5.70047C21.8131 5.89486 21.7359 6.08126 21.5984 6.21872C21.4609 6.35617 21.2745 6.43337 21.0801 6.43337L12.5227 6.43965Z" fill="#8787FB"/>
<path d="M31.0723 53.9563C37.6598 53.9563 43 48.6161 43 42.0286C43 35.4411 37.6598 30.1009 31.0723 30.1009C24.4848 30.1009 19.1445 35.4411 19.1445 42.0286C19.1445 48.6161 24.4848 53.9563 31.0723 53.9563Z" fill="#EAEAEA"/>
<path d="M31.0722 52.1208C36.6252 52.1208 41.1268 47.6192 41.1268 42.0662C41.1268 36.5131 36.6252 32.0115 31.0722 32.0115C25.5192 32.0115 21.0176 36.5131 21.0176 42.0662C21.0176 47.6192 25.5192 52.1208 31.0722 52.1208Z" fill="#A29FBB"/>
<path d="M32.4004 41.5149V41.4585C33.3526 41.2267 34.6744 40.6065 34.6744 39.0905C34.6798 38.7348 34.5988 38.3832 34.4384 38.0656C34.278 37.7481 34.043 37.4743 33.7535 37.2676C33.1357 36.8975 32.4248 36.7126 31.705 36.735V35.4383H30.9846V36.6912H29.7943V35.4383H29.0739V36.6912H26.9126V37.1673C28.2031 37.255 28.2783 37.3552 28.2783 38.7146V45.0544C28.2783 46.395 28.1656 46.5077 26.7686 46.6017V47.0591H29.0739V48.312H29.7943V47.0591H30.521C30.6776 47.0591 30.8092 47.0591 30.9595 47.0591V48.7004H31.68V46.9964C32.4049 46.9488 33.1145 46.7661 33.7723 46.4576C34.2327 46.2418 34.6227 45.9003 34.8976 45.4725C35.1724 45.0447 35.3209 44.548 35.3259 44.0395C35.351 42.4295 34.073 41.7341 32.4004 41.5149ZM30.001 37.4429C30.2818 37.3003 30.5949 37.2334 30.9094 37.2488C31.1908 37.2104 31.4772 37.2364 31.7471 37.3246C32.017 37.4129 32.2634 37.5611 32.4678 37.7583C32.6721 37.9554 32.8291 38.1964 32.9271 38.4629C33.025 38.7295 33.0613 39.0147 33.0331 39.2973C33.0331 40.6191 32.2939 41.3082 30.5273 41.3082H29.7943V38.2197C29.7943 37.7311 29.8632 37.5432 30.001 37.4429ZM31.16 46.5203C30.1326 46.5203 29.8194 46.2258 29.8194 45.0356V41.8595H30.4959C32.4818 41.8595 33.5907 42.5924 33.5907 44.1961C33.5907 45.7999 32.438 46.4952 31.16 46.5203Z" fill="#231F20"/>
<defs>
<linearGradient id="paint0_linear_102_593" x1="16.8266" y1="94.0748" x2="16.8266" y2="-45.4252" gradientUnits="userSpaceOnUse">
<stop stop-color="white"/>
<stop offset="0.170912" stop-color="#C2C2C2"/>
<stop offset="1"/>
</linearGradient>
</defs>
</svg>
