<svg width="63" height="58" viewBox="0 0 63 58" fill="none" xmlns="http://www.w3.org/2000/svg">
<path d="M8.08301 9.06114C10.7008 6.42488 13.8108 4.33321 17.2348 2.90607C20.6589 1.47892 24.3296 0.74435 28.0369 0.74435C31.7441 0.74435 35.415 1.47892 38.839 2.90607C42.2631 4.33321 45.3731 6.42488 47.9908 9.06114C45.5339 11.9683 42.4765 14.3037 39.0309 15.9054C35.5852 17.5072 31.8338 18.3368 28.0369 18.3368C24.24 18.3368 20.4886 17.5072 17.043 15.9054C13.5973 14.3037 10.5399 11.9683 8.08301 9.06114Z" fill="#8787FB"/>
<path d="M53.2929 41.6024C50.5729 47.0965 46.1491 51.5542 40.6876 54.3044C35.2261 57.0545 29.0226 57.948 23.0116 56.8503C17.0005 55.7527 11.5073 52.7233 7.35938 48.2185C3.21142 43.7137 0.63322 37.9772 0.0131836 31.8733C5.26272 38.6378 12.7617 43.2784 21.1385 44.9463C29.5153 46.6141 38.21 45.1979 45.6324 40.9564C48.0852 41.8632 50.7362 42.0886 53.3059 41.6089L53.2929 41.6024Z" fill="#8787FB"/>
<path d="M39.5638 36.702C35.9272 38.2911 32.003 39.1086 28.0371 39.1032C22.2419 39.097 16.5801 37.3553 11.7757 34.1007C6.9712 30.8461 3.24238 26.2265 1.06592 20.8326C1.7613 18.5242 2.75062 16.3156 4.00932 14.2617C8.05019 18.6765 13.2194 21.8936 18.9544 23.563C24.6894 25.2324 30.7706 25.2901 36.536 23.7298C36.2508 24.8891 36.1068 26.0788 36.1071 27.273C36.0994 30.73 37.3258 34.0753 39.5638 36.702Z" fill="url(#paint0_linear_102_576)"/>
<path d="M50.6291 39.697C57.4616 39.697 63.0004 34.1346 63.0004 27.273C63.0004 20.4114 57.4616 14.849 50.6291 14.849C43.7966 14.849 38.2578 20.4114 38.2578 27.273C38.2578 34.1346 43.7966 39.697 50.6291 39.697Z" fill="url(#paint1_linear_102_576)"/>
<path d="M50.6287 37.7851C56.3882 37.7851 61.0573 33.0962 61.0573 27.3121C61.0573 21.5281 56.3882 16.8392 50.6287 16.8392C44.8692 16.8392 40.2002 21.5281 40.2002 27.3121C40.2002 33.0962 44.8692 37.7851 50.6287 37.7851Z" fill="#8787FB"/>
<path d="M52.0065 26.7314V26.6727C52.9941 26.4313 54.3651 25.7852 54.3651 24.2061C54.3707 23.8357 54.2868 23.4694 54.1204 23.1386C53.9541 22.8079 53.7103 22.5226 53.41 22.3073C52.7684 21.9232 52.032 21.7287 51.2853 21.7461V20.4411H50.5641V21.7461H49.3556V20.4411H48.6018V21.7461H46.3667V22.242C47.7052 22.3334 47.7831 22.4378 47.7831 23.8538V30.4573C47.7831 31.8537 47.6662 31.9647 46.2173 32.0691V32.5454H48.6018V33.8504H49.3556V32.5454H50.1093C50.2717 32.5454 50.4082 32.5127 50.5641 32.5127V34.2223H51.3113V32.4475C52.0632 32.398 52.7993 32.2076 53.4815 31.8863C53.9578 31.6605 54.361 31.3044 54.6449 30.8589C54.9288 30.4134 55.0818 29.8965 55.0863 29.3676C55.0604 27.6906 53.7414 26.9598 52.0065 26.7314ZM49.518 22.49C49.8092 22.3414 50.1339 22.2717 50.4601 22.2877C50.7519 22.2478 51.049 22.2749 51.3289 22.3668C51.6089 22.4587 51.8644 22.6132 52.0764 22.8185C52.2884 23.0238 52.4513 23.2747 52.5528 23.5523C52.6544 23.83 52.692 24.1271 52.6628 24.4214C52.6628 25.7983 51.8961 26.5161 50.0638 26.5161H49.3295V23.2991C49.3295 22.8163 49.3751 22.6009 49.518 22.4965V22.49ZM50.72 31.945C49.6544 31.945 49.3295 31.6384 49.3295 30.3986V27.0903H50.0313C52.091 27.0903 53.2411 27.8538 53.2411 29.5242C53.2411 31.1947 52.0455 31.9516 50.72 31.9516V31.945Z" fill="#231F20"/>
<defs>
<linearGradient id="paint0_linear_102_576" x1="21.4097" y1="-0.380855" x2="17.9825" y2="90.1814" gradientUnits="userSpaceOnUse">
<stop stop-color="white"/>
<stop offset="1"/>
</linearGradient>
<linearGradient id="paint1_linear_102_576" x1="50.6291" y1="9.93549" x2="50.6291" y2="47.1553" gradientUnits="userSpaceOnUse">
<stop stop-color="white"/>
<stop offset="1"/>
</linearGradient>
</defs>
</svg>
