<svg width="57" height="52" viewBox="0 0 57 52" fill="none" xmlns="http://www.w3.org/2000/svg">
<path d="M43.9166 50.1969C51.0818 50.1969 56.8903 44.4405 56.8903 37.3396C56.8903 30.2386 51.0818 24.4822 43.9166 24.4822C36.7514 24.4822 30.9429 30.2386 30.9429 37.3396C30.9429 44.4405 36.7514 50.1969 43.9166 50.1969Z" fill="#EAEAEA"/>
<path d="M43.9168 48.2251C49.9568 48.2251 54.8532 43.3726 54.8532 37.3868C54.8532 31.401 49.9568 26.5485 43.9168 26.5485C37.8768 26.5485 32.9805 31.401 32.9805 37.3868C32.9805 43.3726 37.8768 48.2251 43.9168 48.2251Z" fill="#A29FBB"/>
<path d="M39.7397 15.636H34.9699C34.9699 12.8135 33.8385 10.1065 31.8246 8.11065C29.8107 6.11481 27.0793 4.99357 24.2312 4.99357C21.3831 4.99357 18.6516 6.11481 16.6377 8.11065C14.6238 10.1065 13.4924 12.8135 13.4924 15.636H8.72266C8.72266 11.5598 10.3566 7.65053 13.265 4.7682C16.1734 1.88588 20.1181 0.266602 24.2312 0.266602C28.3443 0.266602 32.2889 1.88588 35.1973 4.7682C38.1057 7.65053 39.7397 11.5598 39.7397 15.636Z" fill="url(#paint0_linear_102_561)"/>
<path d="M42.1041 15.6361H5.35664C3.96512 15.6361 2.63061 16.1839 1.64666 17.159C0.662705 18.1341 0.109863 19.4567 0.109863 20.8357V46.8003C0.109863 48.1793 0.662705 49.5019 1.64666 50.477C2.63061 51.4522 3.96512 52 5.35664 52H42.1041C42.3321 52.0009 42.5599 51.9851 42.7855 51.9527C39.7058 51.7216 36.7766 50.5402 34.4093 48.5744C32.042 46.6087 30.3556 43.9573 29.5869 40.9929H8.02765C7.66621 40.9929 7.3196 40.8505 7.06403 40.5973C6.80846 40.344 6.66486 40.0005 6.66486 39.6423V39.2371C6.66486 38.8789 6.80846 38.5354 7.06403 38.2822C7.3196 38.0289 7.66621 37.8866 8.02765 37.8866H29.1508C29.1508 37.7043 29.1508 37.5219 29.1508 37.3396C29.1512 36.6344 29.2036 35.9303 29.3076 35.2327H8.05493C7.69349 35.2327 7.34688 35.0905 7.09131 34.8372C6.83574 34.5839 6.69214 34.2403 6.69214 33.8821V33.477C6.69214 33.1188 6.83574 32.7753 7.09131 32.522C7.34688 32.2687 7.69349 32.1264 8.05493 32.1264H30.1184C30.4771 31.1967 30.9339 30.3072 31.4812 29.4726H8.07539C7.71396 29.4726 7.36735 29.3303 7.11177 29.077C6.8562 28.8237 6.7126 28.4802 6.7126 28.122V27.7168C6.7126 27.3586 6.8562 27.0151 7.11177 26.7618C7.36735 26.5085 7.71396 26.3662 8.07539 26.3662H34.125C35.9037 24.808 38.0343 23.6964 40.3373 23.1253C42.6403 22.5541 45.0481 22.54 47.3577 23.0844V20.8357C47.3577 20.1523 47.2217 19.4756 46.9576 18.8443C46.6935 18.213 46.3064 17.6395 45.8185 17.1566C45.3306 16.6737 44.7515 16.2909 44.1141 16.0299C43.4768 15.769 42.7937 15.6352 42.1041 15.6361Z" fill="#B04ADF"/>
<path d="M45.3611 36.7858V36.7318C46.3969 36.4819 47.8346 35.8134 47.8346 34.1792C47.8405 33.7958 47.7525 33.4167 47.578 33.0744C47.4035 32.7322 47.1479 32.4369 46.833 32.2141C46.1602 31.8167 45.3879 31.6154 44.6048 31.6334V30.2828H43.8212V31.6334H42.5538V30.2828H41.7702V31.6334H39.4194V32.1533C40.8231 32.2479 40.9048 32.3559 40.9048 33.8213V40.6551C40.9048 42.1002 40.7822 42.215 39.2695 42.323V42.8161H41.7702V44.1666H42.5538V42.8161H43.3442C43.5146 42.8161 43.6577 42.816 43.8212 42.7755V44.5515H44.6048V42.7148C45.3933 42.6635 46.1652 42.4665 46.8806 42.134C47.3819 41.902 47.8066 41.534 48.1057 41.0727C48.4047 40.6114 48.5659 40.0757 48.5705 39.5275C48.5705 37.7785 47.1805 37.0424 45.3611 36.7858ZM42.7514 32.4032C43.0568 32.2495 43.3973 32.1773 43.7394 32.1938C44.0455 32.1525 44.357 32.1805 44.6506 32.2757C44.9441 32.3708 45.2121 32.5306 45.4344 32.7431C45.6567 32.9557 45.8276 33.2153 45.9341 33.5026C46.0406 33.7899 46.08 34.0974 46.0494 34.402C46.0494 35.8269 45.2453 36.563 43.3238 36.563H42.5538V33.2405C42.5538 32.7071 42.6015 32.5112 42.7514 32.4032ZM44.012 42.188C42.8945 42.188 42.5538 41.8706 42.5538 40.5876V37.164H43.2897C45.4497 37.164 46.6558 37.954 46.6558 39.6828C46.6558 41.4115 45.402 42.161 44.012 42.188Z" fill="#141D18"/>
<defs>
<linearGradient id="paint0_linear_102_561" x1="24.2312" y1="-5.67588" x2="24.2312" y2="18.4114" gradientUnits="userSpaceOnUse">
<stop stop-color="white"/>
<stop offset="1"/>
</linearGradient>
</defs>
</svg>
