<svg width="182" height="179" viewBox="0 0 182 179" fill="none" xmlns="http://www.w3.org/2000/svg">
<path d="M91.23 59.4584V0.971191" stroke="white" stroke-opacity="0.2" stroke-width="1.5" stroke-miterlimit="10"/>
<path d="M94.8511 59.6787L101.881 1.58545" stroke="white" stroke-opacity="0.2" stroke-width="1.5" stroke-miterlimit="10"/>
<path d="M98.4248 60.3041L112.378 3.43896" stroke="white" stroke-opacity="0.2" stroke-width="1.5" stroke-miterlimit="10"/>
<path d="M101.905 61.3472L122.581 6.49805" stroke="white" stroke-opacity="0.2" stroke-width="1.5" stroke-miterlimit="10"/>
<path d="M105.219 62.7721L132.359 10.7036" stroke="white" stroke-opacity="0.2" stroke-width="1.5" stroke-miterlimit="10"/>
<path d="M108.345 64.5798L141.547 16.022" stroke="white" stroke-opacity="0.2" stroke-width="1.5" stroke-miterlimit="10"/>
<path d="M111.234 66.7463L150.039 22.3711" stroke="white" stroke-opacity="0.2" stroke-width="1.5" stroke-miterlimit="10"/>
<path d="M113.841 69.2256L157.706 29.6587" stroke="white" stroke-opacity="0.2" stroke-width="1.5" stroke-miterlimit="10"/>
<path d="M116.141 71.9833L164.441 37.7808" stroke="white" stroke-opacity="0.2" stroke-width="1.5" stroke-miterlimit="10"/>
<path d="M118.087 74.9959L170.161 46.6328" stroke="white" stroke-opacity="0.2" stroke-width="1.5" stroke-miterlimit="10"/>
<path d="M119.656 78.2169L174.773 56.0757" stroke="white" stroke-opacity="0.2" stroke-width="1.5" stroke-miterlimit="10"/>
<path d="M120.824 81.5882L178.217 65.9932" stroke="white" stroke-opacity="0.2" stroke-width="1.5" stroke-miterlimit="10"/>
<path d="M121.59 85.0758L180.446 76.2471" stroke="white" stroke-opacity="0.2" stroke-width="1.5" stroke-miterlimit="10"/>
<path d="M121.92 88.6208L181.437 86.6743" stroke="white" stroke-opacity="0.2" stroke-width="1.5" stroke-miterlimit="10"/>
<path d="M121.826 92.1895L181.154 97.1484" stroke="white" stroke-opacity="0.2" stroke-width="1.5" stroke-miterlimit="10"/>
<path d="M121.307 95.7119L179.621 107.518" stroke="white" stroke-opacity="0.2" stroke-width="1.5" stroke-miterlimit="10"/>
<path d="M120.363 99.1523L176.86 117.644" stroke="white" stroke-opacity="0.2" stroke-width="1.5" stroke-miterlimit="10"/>
<path d="M119.019 102.467L172.885 127.377" stroke="white" stroke-opacity="0.2" stroke-width="1.5" stroke-miterlimit="10"/>
<path d="M117.273 105.595L167.791 136.576" stroke="white" stroke-opacity="0.2" stroke-width="1.5" stroke-miterlimit="10"/>
<path d="M115.174 108.503L161.61 145.116" stroke="white" stroke-opacity="0.2" stroke-width="1.5" stroke-miterlimit="10"/>
<path d="M112.744 111.145L154.451 152.89" stroke="white" stroke-opacity="0.2" stroke-width="1.5" stroke-miterlimit="10"/>
<path d="M110.008 113.485L146.418 159.772" stroke="white" stroke-opacity="0.2" stroke-width="1.5" stroke-miterlimit="10"/>
<path d="M107.012 115.501L137.596 165.681" stroke="white" stroke-opacity="0.2" stroke-width="1.5" stroke-miterlimit="10"/>
<path d="M103.792 117.146L128.136 170.523" stroke="white" stroke-opacity="0.2" stroke-width="1.5" stroke-miterlimit="10"/>
<path d="M100.395 118.409L118.17 174.232" stroke="white" stroke-opacity="0.2" stroke-width="1.5" stroke-miterlimit="10"/>
<path d="M96.8682 119.267L107.814 176.769" stroke="white" stroke-opacity="0.2" stroke-width="1.5" stroke-miterlimit="10"/>
<path d="M93.2705 119.718L97.2336 178.078" stroke="white" stroke-opacity="0.2" stroke-width="1.5" stroke-miterlimit="10"/>
<path d="M89.638 119.742L86.5596 178.159" stroke="white" stroke-opacity="0.2" stroke-width="1.5" stroke-miterlimit="10"/>
<path d="M86.0406 119.348L75.9561 177.001" stroke="white" stroke-opacity="0.2" stroke-width="1.5" stroke-miterlimit="10"/>
<path d="M82.5022 118.537L65.5767 174.614" stroke="white" stroke-opacity="0.2" stroke-width="1.5" stroke-miterlimit="10"/>
<path d="M79.0933 117.332L55.5391 171.045" stroke="white" stroke-opacity="0.2" stroke-width="1.5" stroke-miterlimit="10"/>
<path d="M75.8497 115.721L46.0088 166.341" stroke="white" stroke-opacity="0.2" stroke-width="1.5" stroke-miterlimit="10"/>
<path d="M72.8186 113.763L37.1157 160.571" stroke="white" stroke-opacity="0.2" stroke-width="1.5" stroke-miterlimit="10"/>
<path d="M70.0467 111.458L28.9653 153.794" stroke="white" stroke-opacity="0.2" stroke-width="1.5" stroke-miterlimit="10"/>
<path d="M67.5698 108.851L21.688 146.135" stroke="white" stroke-opacity="0.2" stroke-width="1.5" stroke-miterlimit="10"/>
<path d="M65.4351 105.977L15.3896 137.677" stroke="white" stroke-opacity="0.2" stroke-width="1.5" stroke-miterlimit="10"/>
<path d="M63.6423 102.872L10.1528 128.547" stroke="white" stroke-opacity="0.2" stroke-width="1.5" stroke-miterlimit="10"/>
<path d="M62.2507 99.582L6.03662 118.885" stroke="white" stroke-opacity="0.2" stroke-width="1.5" stroke-miterlimit="10"/>
<path d="M61.2597 96.1523L3.12305 108.804" stroke="white" stroke-opacity="0.2" stroke-width="1.5" stroke-miterlimit="10"/>
<path d="M60.6819 92.6304L1.43652 98.4582" stroke="white" stroke-opacity="0.2" stroke-width="1.5" stroke-miterlimit="10"/>
<path d="M60.5285 89.0614L1 87.9839" stroke="white" stroke-opacity="0.2" stroke-width="1.5" stroke-miterlimit="10"/>
<path d="M60.8116 85.5156L1.82568 77.5327" stroke="white" stroke-opacity="0.2" stroke-width="1.5" stroke-miterlimit="10"/>
<path d="M61.5191 82.0167L3.90137 67.2559" stroke="white" stroke-opacity="0.2" stroke-width="1.5" stroke-miterlimit="10"/>
<path d="M62.6397 78.6222L7.2041 57.292" stroke="white" stroke-opacity="0.2" stroke-width="1.5" stroke-miterlimit="10"/>
<path d="M64.1613 75.3897L11.6743 47.7798" stroke="white" stroke-opacity="0.2" stroke-width="1.5" stroke-miterlimit="10"/>
<path d="M66.0604 72.354L17.2534 38.8467" stroke="white" stroke-opacity="0.2" stroke-width="1.5" stroke-miterlimit="10"/>
<path d="M68.313 69.5494L23.8701 30.6313" stroke="white" stroke-opacity="0.2" stroke-width="1.5" stroke-miterlimit="10"/>
<path d="M70.8843 67.036L31.4307 23.2285" stroke="white" stroke-opacity="0.2" stroke-width="1.5" stroke-miterlimit="10"/>
<path d="M73.7388 64.8344L39.8169 16.7632" stroke="white" stroke-opacity="0.2" stroke-width="1.5" stroke-miterlimit="10"/>
<path d="M76.8406 62.9808L48.9341 11.3179" stroke="white" stroke-opacity="0.2" stroke-width="1.5" stroke-miterlimit="10"/>
<path d="M80.1431 61.4977L58.6294 6.96143" stroke="white" stroke-opacity="0.2" stroke-width="1.5" stroke-miterlimit="10"/>
<path d="M83.5994 60.4085L68.7969 3.75195" stroke="white" stroke-opacity="0.2" stroke-width="1.5" stroke-miterlimit="10"/>
<path d="M87.1613 59.7251L79.2588 1.75928" stroke="white" stroke-opacity="0.2" stroke-width="1.5" stroke-miterlimit="10"/>
</svg>
