<svg width="17" height="17" viewBox="0 0 17 17" fill="none" xmlns="http://www.w3.org/2000/svg">
<path d="M8.41045 5.85343C6.89727 5.85343 5.6624 7.08829 5.6624 8.60147C5.6624 10.1147 6.89727 11.3495 8.41045 11.3495C9.92362 11.3495 11.1585 10.1147 11.1585 8.60147C11.1585 7.08829 9.92362 5.85343 8.41045 5.85343ZM16.6525 8.60147C16.6525 7.4635 16.6628 6.33583 16.5989 5.19991C16.535 3.88052 16.234 2.70956 15.2692 1.74475C14.3024 0.777886 13.1335 0.478961 11.8141 0.415053C10.6761 0.351145 9.54842 0.361453 8.41251 0.361453C7.27453 0.361453 6.14686 0.351145 5.01095 0.415053C3.69156 0.478961 2.5206 0.779948 1.55579 1.74475C0.588922 2.71162 0.289997 3.88052 0.226088 5.19991C0.16218 6.33789 0.172488 7.46556 0.172488 8.60147C0.172488 9.73739 0.16218 10.8671 0.226088 12.003C0.289997 13.3224 0.590983 14.4934 1.55579 15.4582C2.52266 16.4251 3.69156 16.724 5.01095 16.7879C6.14893 16.8518 7.27659 16.8415 8.41251 16.8415C9.55048 16.8415 10.6782 16.8518 11.8141 16.7879C13.1335 16.724 14.3044 16.423 15.2692 15.4582C16.2361 14.4913 16.535 13.3224 16.5989 12.003C16.6649 10.8671 16.6525 9.73945 16.6525 8.60147ZM8.41045 12.8297C6.07059 12.8297 4.18221 10.9413 4.18221 8.60147C4.18221 6.26161 6.07059 4.37323 8.41045 4.37323C10.7503 4.37323 12.6387 6.26161 12.6387 8.60147C12.6387 10.9413 10.7503 12.8297 8.41045 12.8297ZM12.8119 5.18754C12.2655 5.18754 11.8244 4.74637 11.8244 4.20006C11.8244 3.65375 12.2655 3.21258 12.8119 3.21258C13.3582 3.21258 13.7993 3.65375 13.7993 4.20006C13.7995 4.32979 13.7741 4.45827 13.7245 4.57815C13.6749 4.69803 13.6022 4.80695 13.5105 4.89868C13.4187 4.99041 13.3098 5.06314 13.1899 5.11271C13.0701 5.16228 12.9416 5.18771 12.8119 5.18754Z" fill="white"/>
</svg>
