<svg width="17" height="16" viewBox="0 0 17 16" fill="none" xmlns="http://www.w3.org/2000/svg">
<path d="M4.13157 15.6859V5.30064H0.679731V15.6859H4.13157ZM2.4061 3.88186C3.60981 3.88186 4.35907 3.08439 4.35907 2.08783C4.33664 1.06879 3.60986 0.293457 2.42894 0.293457C1.2482 0.293457 0.476074 1.0688 0.476074 2.08783C0.476074 3.08444 1.22515 3.88186 2.38356 3.88186H2.40599H2.4061ZM6.04215 15.6859H9.49399V9.88625C9.49399 9.57586 9.51642 9.2658 9.60757 9.04391C9.85711 8.42377 10.4251 7.78148 11.3786 7.78148C12.6277 7.78148 13.1274 8.73383 13.1274 10.1299V15.6858H16.579V9.731C16.579 6.54106 14.8761 5.05682 12.605 5.05682C10.7428 5.05682 9.92524 6.09769 9.47102 6.80661H9.49407V5.30042H6.04223C6.08753 6.27491 6.04223 15.6857 6.04223 15.6857L6.04215 15.6859Z" fill="white"/>
</svg>
