<svg width="15" height="19" viewBox="0 0 15 19" fill="none" xmlns="http://www.w3.org/2000/svg">
<path d="M0.732484 6.71272C0.732484 5.94715 0.866312 5.22389 1.13003 4.54885C1.38199 3.8932 1.75634 3.29144 2.23312 2.77564C2.70893 2.26661 3.25343 1.82645 3.85086 1.46787C4.46382 1.09704 5.12743 0.81728 5.82088 0.637355C6.52269 0.453068 7.24536 0.36013 7.97097 0.360844C9.09177 0.360844 10.1348 0.597994 11.1021 1.07033C12.0568 1.53404 12.8694 2.24569 13.4549 3.13087C14.0591 4.03126 14.3593 5.04972 14.3593 6.18528C14.3593 6.86623 14.2923 7.53241 14.1556 8.18384C14.0213 8.8349 13.8078 9.46708 13.5199 10.0663C13.2455 10.6463 12.8867 11.1825 12.4552 11.6574C12.0215 12.1248 11.4963 12.498 10.9122 12.7536C10.2781 13.0315 9.59217 13.1714 8.89989 13.164C8.4187 13.164 7.9385 13.0508 7.4642 12.8235C6.9899 12.5972 6.64942 12.2862 6.44475 11.8877C6.37291 12.1642 6.27451 12.5637 6.14364 13.0862C6.01768 13.6078 5.93305 13.9443 5.89566 14.0968C5.8563 14.2484 5.78348 14.5013 5.67721 14.8516C5.60513 15.1107 5.51268 15.3638 5.4007 15.6083L5.06219 16.2715C4.9158 16.5561 4.75215 16.8315 4.57215 17.0962C4.39404 17.354 4.17362 17.662 3.91088 18.0162L3.76426 18.0684L3.66685 17.9621C3.56155 16.8472 3.50743 16.18 3.50743 15.9596C3.50743 15.3072 3.58517 14.5751 3.73868 13.7623C3.88923 12.9505 4.12737 11.93 4.44718 10.7029C4.76699 9.47685 4.95001 8.75556 4.99921 8.54202C4.77387 8.08248 4.65973 7.48223 4.65973 6.74421C4.65973 6.15478 4.84374 5.60274 5.21275 5.08318C5.58274 4.56558 6.05015 4.30678 6.61695 4.30678C7.05091 4.30678 7.38744 4.45045 7.62853 4.73877C7.8706 5.0261 7.98868 5.38823 7.98868 5.83005C7.98868 6.29845 7.83321 6.97644 7.52029 7.86305C7.20737 8.75064 7.05189 9.41289 7.05189 9.85275C7.05189 10.2985 7.2113 10.6715 7.53013 10.9637C7.84476 11.2561 8.26085 11.4146 8.69029 11.4055C9.07996 11.4055 9.4411 11.317 9.77665 11.1389C10.107 10.966 10.3929 10.7191 10.6121 10.4176C11.0896 9.76251 11.4299 9.01783 11.6128 8.22812C11.7073 7.81286 11.7801 7.41827 11.8254 7.04729C11.8736 6.67435 11.8943 6.32206 11.8943 5.9875C11.8943 4.76042 11.5046 3.80395 10.7302 3.11906C9.95181 2.43418 8.93826 2.09371 7.69151 2.09371C6.27353 2.09371 5.08778 2.55227 4.13819 3.47233C3.18763 4.38944 2.70939 5.55551 2.70939 6.96955C2.70939 7.28149 2.75662 7.5826 2.84617 7.87387C2.93375 8.16416 3.0292 8.3954 3.13252 8.56662C3.23486 8.73489 3.33129 8.89923 3.41887 9.05077C3.50743 9.2023 3.55368 9.31055 3.55368 9.37549C3.55368 9.57427 3.50153 9.83306 3.39624 10.1529C3.28701 10.4727 3.1581 10.6321 3.00263 10.6321C2.98787 10.6321 2.92686 10.6213 2.82058 10.5986C2.45252 10.4888 2.12013 10.2833 1.85722 10.0033C1.57819 9.71307 1.35798 9.37156 1.20875 8.99763C1.05995 8.62503 0.944045 8.24012 0.862376 7.8473C0.77414 7.47562 0.730535 7.09473 0.732484 6.71272Z" fill="white"/>
</svg>
