<svg width="20" height="16" viewBox="0 0 20 16" fill="none" xmlns="http://www.w3.org/2000/svg">
<path d="M1.81689 2.92725C1.81559 2.51369 1.89053 2.10542 2.03467 1.72119C3.9788 3.863 6.74339 5.24405 9.81689 5.40479L10.3335 5.43115L10.229 4.92432C10.175 4.66032 10.1431 4.39109 10.1431 4.12646C10.1431 2.29343 11.5787 0.789846 13.397 0.697754L13.5737 0.693848H13.5747C14.0445 0.69281 14.5097 0.788557 14.9409 0.975098C15.3182 1.13833 15.6623 1.36809 15.9575 1.65283L16.0815 1.77783L16.2319 1.93896L16.4497 1.89697C16.9437 1.80143 17.4256 1.65717 17.8911 1.47119C17.6265 1.82005 17.2971 2.11987 16.9146 2.34717L17.1626 3.08838C17.4921 3.05281 17.8165 2.99252 18.1343 2.91553C17.8353 3.22119 17.5129 3.50421 17.1685 3.75635L16.9907 3.88623L17.0054 4.10596C17.0155 4.25639 17.0161 4.4093 17.0161 4.57764C17.0161 9.47207 13.2932 15.0815 6.51416 15.0815C4.99235 15.0815 3.55119 14.7592 2.24854 14.1802C3.86335 14.0442 5.3458 13.4372 6.55908 12.4868L7.44092 11.7964L6.3208 11.772C5.03521 11.7444 3.9285 11.0221 3.35986 9.96924L3.45459 9.97217H3.45557C3.82952 9.97112 4.20202 9.92361 4.56396 9.82959L4.54248 9.05029C3.16186 8.77092 2.08492 7.67012 1.84326 6.27588C2.24897 6.42066 2.67572 6.50394 3.10889 6.521L4.5249 6.57666L3.34619 5.78955C2.4214 5.17096 1.81699 4.12009 1.81689 2.9292V2.92725Z" fill="white" stroke="white" stroke-width="0.8"/>
</svg>
