<svg width="24" height="24" viewBox="0 0 24 24" fill="none" xmlns="http://www.w3.org/2000/svg">
<g clip-path="url(#clip0_102_101)">
<path d="M0 0H24V24H0V0Z" fill="#172852"/>
<path d="M17.9958 14.2791C16.8275 14.5818 15.6093 14.6292 14.4216 14.4181C13.234 14.207 12.1038 13.7421 11.1058 13.0542C10.1078 12.3663 9.26458 11.4711 8.63182 10.4275C7.99906 9.38386 7.59115 8.21568 7.435 7C6.63398 7.66797 5.99737 8.51687 5.57585 9.47911C5.15433 10.4414 4.95954 11.4904 5.00698 12.5427C5.05443 13.5949 5.3428 14.6214 5.84914 15.5404C6.35548 16.4594 7.0658 17.2455 7.92357 17.8361C8.78134 18.4268 9.76286 18.8056 10.79 18.9426C11.8171 19.0795 12.8615 18.9707 13.84 18.6249C14.8185 18.2791 15.7041 17.7057 16.4263 16.9505C17.1485 16.1953 17.6874 15.2791 18 14.2748H17.9958V14.2791Z" fill="#FFD83D"/>
<path d="M18.9841 12C17.6071 11.3406 16.4267 10.3516 15.5545 9.12664C14.6823 7.90169 14.1473 6.48131 14 5C15.5245 5.4501 16.8468 6.38691 17.7518 7.65794C18.6568 8.92896 19.0911 10.4594 18.9841 12Z" fill="#FB6E04"/>
<path d="M19 10C18.6393 9.89347 18.24 9.76136 17.7806 9.61221C16.8746 9.31818 15.754 8.9517 14.3371 8.56391C12.1988 7.9801 10.3697 7.10225 9 5.87923C9.90897 5.37069 10.9227 5.0742 11.9642 5.01223C13.0058 4.95025 14.0479 5.12442 15.0116 5.52153C15.9753 5.91864 16.8352 6.52827 17.5262 7.30421C18.2173 8.08015 18.7213 9.00204 19 10Z" fill="#FFD83D"/>
</g>
<defs>
<clipPath id="clip0_102_101">
<rect width="24" height="24" rx="12" fill="white"/>
</clipPath>
</defs>
</svg>
