<svg width="24" height="24" viewBox="0 0 24 24" fill="none" xmlns="http://www.w3.org/2000/svg">
<g clip-path="url(#clip0_102_112)">
<path d="M0 0H24V24H0V0Z" fill="#26A17B"/>
<path d="M13.3125 12.9858C13.2399 12.9858 12.9275 13.0152 12.0144 13.0152C11.2825 13.0152 10.8686 12.9936 10.6875 12.9858C7.86869 12.8618 5.65931 12.3722 5.65931 11.7802C5.65931 11.1883 7.86869 10.6913 10.6875 10.5669V12.4965H13.3125V10.5673C16.1239 10.6913 18.3333 11.1883 18.3333 11.7802C18.3333 12.3648 16.1239 12.8618 13.3125 12.9858ZM13.3125 10.3628V8.6H17.25V6H6.75V8.6H10.6875V10.3624C7.499 10.5088 5 11.1519 5 11.9115C5 12.6716 7.499 13.3147 10.6875 13.4611V19H13.3125V13.4611C16.501 13.3147 19 12.6716 19 11.9115C19 11.1519 16.501 10.5166 13.3125 10.3628Z" fill="white"/>
</g>
<defs>
<clipPath id="clip0_102_112">
<rect width="24" height="24" rx="12" fill="white"/>
</clipPath>
</defs>
</svg>
