<svg width="228" height="464" viewBox="0 0 228 464" fill="none" xmlns="http://www.w3.org/2000/svg">
<path d="M-216.881 351.421L-32.6045 350.68L-32.6045 338.433L0.5092 338.292L0.509201 352.991L98.8177 352.603C98.9204 353.015 99.1535 353.381 99.4805 353.643C99.8075 353.904 100.21 354.048 100.625 354.05C101.131 354.05 101.617 353.844 101.976 353.476C102.334 353.109 102.535 352.611 102.535 352.091C102.535 351.572 102.334 351.074 101.976 350.706C101.617 350.339 101.131 350.133 100.625 350.133C100.225 350.154 99.842 350.306 99.5323 350.566C99.2226 350.827 99.0024 351.182 98.9037 351.58L1.61073 351.968L1.473 315.388L-97.8854 315.794L-97.8854 305.329L-216.916 305.806L-216.916 306.812L-98.8663 306.353L-98.8663 316.817L-54.7893 316.641L-54.7893 341.345L-111.688 341.574L-111.688 330.387L-216.898 330.793L-216.898 331.816L-112.687 331.41L-112.687 342.598L-53.8083 342.351L-53.8943 316.658L0.388714 316.429L0.388716 337.286L-33.7405 337.428L-33.7405 349.674L-217.019 350.415L-216.881 351.421Z" fill="#7C3CB4" fill-opacity="0.47"/>
<path d="M-217.26 250.556L60.6955 249.462L60.5751 217.24L159.572 216.835C159.668 217.183 159.857 217.496 160.118 217.74C160.379 217.983 160.701 218.148 161.048 218.214C161.395 218.28 161.753 218.245 162.081 218.114C162.41 217.982 162.696 217.759 162.908 217.47C163.12 217.18 163.248 216.836 163.279 216.476C163.31 216.116 163.242 215.753 163.083 215.431C162.925 215.108 162.681 214.837 162.38 214.648C162.078 214.46 161.732 214.361 161.379 214.364C160.964 214.366 160.562 214.51 160.235 214.772C159.908 215.033 159.675 215.399 159.572 215.811L117.01 215.988L116.872 195.748L-115.165 196.665L-115.165 207.094L-217.501 207.5L-217.501 208.523L-114.236 208.1L-114.236 197.689L115.822 196.771L115.822 215.917L26.7213 216.27L26.7213 206.529L-2.91574 206.635L-2.91574 226.152L-119.296 226.61L-119.296 236.016L-217.57 236.404L-217.57 237.428L-118.297 237.022L-118.297 227.634L-1.91759 227.157L-1.91759 207.659L25.7231 207.553L25.7231 217.293L59.3875 217.17L59.508 248.368L-217.449 249.48L-217.26 250.556Z" fill="#7C3CB4" fill-opacity="0.47"/>
<path d="M158.471 286.254C158.829 286.259 159.181 286.16 159.487 285.969C159.793 285.779 160.041 285.504 160.202 285.176C160.362 284.848 160.43 284.48 160.397 284.114C160.364 283.748 160.231 283.4 160.014 283.108C159.797 282.816 159.504 282.592 159.169 282.463C158.834 282.333 158.47 282.303 158.119 282.375C157.768 282.447 157.443 282.619 157.183 282.872C156.923 283.124 156.737 283.446 156.646 283.801L47.34 284.225L47.2368 257.173L-46.6312 257.509L-46.6312 254.156L-217.294 254.826L-217.294 255.85L-47.6295 255.179L-47.6295 258.532L46.1697 258.162L46.4624 333.475L11.3522 333.616L11.1112 271.573L-78.3853 271.926L-78.3853 261.091L-217.191 261.638L-217.191 262.661L-79.4007 262.114L-79.4007 272.949L10.0958 272.596L10.0958 292.519L-136.093 293.101L-136.093 284.931L-217.277 285.248L-217.277 286.272L-137.092 285.954L-137.092 294.124L10.0786 293.542L10.2334 334.64L107.526 334.251C107.641 334.659 107.88 335.017 108.208 335.275C108.537 335.532 108.937 335.675 109.351 335.681C109.601 335.681 109.849 335.63 110.079 335.531C110.31 335.433 110.52 335.288 110.696 335.106C110.872 334.924 111.011 334.708 111.105 334.47C111.199 334.233 111.246 333.978 111.244 333.722C111.238 333.255 111.068 332.805 110.765 332.456C110.462 332.107 110.046 331.881 109.594 331.821C109.142 331.761 108.684 331.87 108.304 332.129C107.924 332.387 107.648 332.777 107.526 333.228L47.2885 333.457L47.1852 307.694L130.623 307.359C130.723 307.755 130.944 308.108 131.254 308.365C131.564 308.622 131.946 308.771 132.345 308.788C132.706 308.813 133.067 308.731 133.385 308.554C133.703 308.376 133.966 308.109 134.141 307.784C134.317 307.459 134.399 307.09 134.378 306.719C134.357 306.348 134.233 305.991 134.022 305.69C133.81 305.388 133.519 305.155 133.183 305.016C132.847 304.878 132.479 304.84 132.123 304.908C131.767 304.975 131.437 305.146 131.171 305.398C130.906 305.651 130.716 305.976 130.623 306.335L47.1852 306.671L47.1852 285.213L156.509 284.79C156.613 285.232 156.868 285.623 157.227 285.891C157.587 286.159 158.027 286.288 158.471 286.254Z" fill="#7C3CB4" fill-opacity="0.47"/>
<path d="M51.4707 442.51L-97.5582 443.11L-97.5582 437.816L-216.606 438.293L-216.606 439.316L-98.5736 438.84L-98.5736 444.133L52.469 443.533L52.3485 415.758L224.01 415.07C224.112 415.482 224.346 415.848 224.673 416.11C224.999 416.372 225.402 416.515 225.817 416.517C226.176 416.525 226.529 416.429 226.837 416.241C227.146 416.052 227.396 415.778 227.559 415.451C227.722 415.123 227.793 414.755 227.761 414.389C227.73 414.022 227.599 413.672 227.383 413.378C227.166 413.085 226.874 412.86 226.538 412.729C226.203 412.598 225.838 412.566 225.486 412.638C225.134 412.709 224.809 412.881 224.548 413.133C224.287 413.386 224.1 413.708 224.01 414.064L51.4707 414.753L51.4707 442.51Z" fill="#7C3CB4" fill-opacity="0.47"/>
<path d="M-0.161911 187.401L-98.522 187.789L-98.522 180.007L-217.552 180.484L-217.552 181.507L-99.5202 181.031L-99.5202 188.813L0.836349 188.407L0.733076 161.938L195.646 161.161C195.767 161.624 196.048 162.027 196.437 162.293C196.826 162.559 197.296 162.672 197.76 162.609C198.223 162.546 198.649 162.313 198.957 161.953C199.266 161.592 199.436 161.129 199.436 160.649C199.436 160.17 199.266 159.707 198.957 159.346C198.649 158.986 198.223 158.753 197.76 158.69C197.296 158.627 196.826 158.74 196.437 159.006C196.048 159.272 195.767 159.675 195.646 160.138L-0.161913 160.844L-0.161911 187.401Z" fill="#7C3CB4" fill-opacity="0.47"/>
<path d="M100.005 54.2263L-43.4817 54.8087L-43.4817 67.1609L-218 67.8491L-218 68.8725L-42.449 68.1667L-42.449 55.8145L99.0415 55.2498L99.1448 81.7189L-22.8803 82.2129L-22.691 141.045L-54.5654 141.168L-54.772 87.0304L-84.1509 87.1539L-84.1509 108.47L-217.879 109.017L-217.879 110.023L-83.1527 109.494L-83.2388 88.1773L-55.753 88.1067L-55.5637 141.221L-82.9461 141.327L-82.9461 132.504L-217.673 133.051L-217.673 133.986L-83.9444 133.439L-83.9444 142.262L-21.6927 142.015L-21.9165 83.2894L184.304 82.4776C184.407 82.888 184.641 83.2513 184.969 83.5102C185.296 83.769 185.698 83.9086 186.111 83.907C186.469 83.9116 186.822 83.813 187.128 83.6223C187.434 83.4316 187.681 83.1565 187.842 82.8284C188.003 82.5004 188.071 82.1326 188.038 81.767C188.005 81.4014 187.872 81.0526 187.655 80.7606C187.437 80.4686 187.145 80.2451 186.809 80.1156C186.474 79.9861 186.11 79.9557 185.759 80.028C185.408 80.1003 185.084 80.2724 184.824 80.5245C184.563 80.7767 184.377 81.0988 184.287 81.4541L100.109 81.7894L100.005 54.2263Z" fill="#7C3CB4" fill-opacity="0.47"/>
<path d="M124.583 360.95C125.089 360.95 125.575 360.743 125.934 360.376C126.292 360.009 126.493 359.511 126.493 358.991C126.493 358.472 126.292 357.973 125.934 357.606C125.575 357.239 125.089 357.032 124.583 357.032C124.168 357.035 123.765 357.178 123.438 357.44C123.111 357.702 122.878 358.067 122.776 358.479L-18.3535 359.044L-18.3535 360.809L-142.272 361.303L-142.272 354.474L-216.726 354.756L-216.726 355.78L-143.253 355.497L-143.253 362.326L-18.2503 361.814L-18.2503 373.32L-98.6766 373.637L-98.6766 378.278L-216.726 378.755L-216.726 379.761L-97.6956 379.302L-97.6956 374.643L-17.2692 374.325L-17.2692 360.032L122.862 359.468C122.956 359.871 123.175 360.232 123.484 360.499C123.794 360.766 124.179 360.924 124.583 360.95Z" fill="#7C3CB4" fill-opacity="0.47"/>
<path d="M167.42 460.05C167.019 460.078 166.637 460.234 166.328 460.497C166.019 460.76 165.799 461.116 165.699 461.515L-216.882 462.203L-216.882 463.226L165.613 462.591C165.71 462.942 165.903 463.258 166.168 463.503C166.433 463.747 166.76 463.909 167.111 463.972C167.462 464.034 167.823 463.993 168.153 463.855C168.482 463.716 168.767 463.484 168.974 463.187C169.181 462.89 169.302 462.539 169.323 462.174C169.344 461.809 169.265 461.446 169.093 461.126C168.922 460.805 168.666 460.541 168.355 460.363C168.044 460.185 167.69 460.101 167.334 460.121L167.42 460.05Z" fill="#7C3CB4" fill-opacity="0.47"/>
<path d="M-71.9314 158.073L-8.76755 157.808L-7.78651 157.808L-7.78652 141.927L118.025 141.433C118.146 141.896 118.427 142.298 118.816 142.565C119.205 142.831 119.675 142.943 120.139 142.881C120.602 142.818 121.028 142.585 121.336 142.224C121.644 141.864 121.814 141.401 121.814 140.921C121.814 140.442 121.644 139.978 121.336 139.618C121.028 139.258 120.602 139.024 120.139 138.962C119.675 138.899 119.205 139.011 118.816 139.278C118.427 139.544 118.146 139.946 118.025 140.409L-8.02748 140.903L-8.76755 140.903L-8.76755 156.785L-71.0192 157.05L-71.0192 150.538L-217.69 151.121L-217.69 152.144L-72.0002 151.562L-71.9314 158.073Z" fill="#7C3CB4" fill-opacity="0.47"/>
<path d="M-63.6358 3.40557L171.947 2.43503C172.041 2.85815 172.273 3.23564 172.604 3.50517C172.936 3.7747 173.348 3.92006 173.771 3.91724C174.129 3.9219 174.481 3.82328 174.787 3.63258C175.093 3.44189 175.341 3.16686 175.502 2.83881C175.663 2.51076 175.731 2.14291 175.697 1.77729C175.664 1.41167 175.531 1.06301 175.314 0.771023C175.097 0.479038 174.804 0.255531 174.469 0.125992C174.134 -0.00355135 173.77 -0.033985 173.419 0.0383188C173.068 0.110626 172.744 0.282669 172.483 0.534832C172.223 0.786991 172.037 1.1092 171.947 1.46452L-64.7029 2.39973L-64.5479 43.8679L-63.5498 43.8679L-63.6358 3.40557Z" fill="#7C3CB4" fill-opacity="0.47"/>
<path d="M-64.9778 425.623L8.03065 425.322L8.03065 402.524L67.8729 402.277L67.8729 392.254L170.673 391.848L170.673 390.824L67.8729 391.23L67.8729 374.025L157.868 373.673C157.97 374.067 158.192 374.418 158.501 374.675C158.811 374.932 159.192 375.082 159.59 375.102C159.951 375.126 160.312 375.045 160.63 374.867C160.948 374.69 161.211 374.423 161.386 374.098C161.562 373.773 161.644 373.404 161.623 373.033C161.602 372.662 161.478 372.305 161.267 372.004C161.055 371.702 160.764 371.468 160.428 371.33C160.092 371.191 159.724 371.154 159.368 371.221C159.012 371.289 158.682 371.459 158.416 371.712C158.151 371.965 157.961 372.29 157.868 372.649L66.8746 373.002L66.8746 391.248L-65.9761 391.777L-65.9761 401.8L-121.464 402.012L-121.464 387.895L-216.606 388.266L-216.606 389.289L-122.479 388.919L-122.479 403.036L-65.9933 402.806L-65.9933 424.599L-97.5752 424.723L-97.5752 415.335L-216.623 415.811L-216.623 416.835L-98.5907 416.358L-98.5907 425.746L-66.0105 425.623L-66.0105 433.246L-65.0123 433.246L-64.9778 425.623ZM-65.0983 392.783L66.7541 392.271L66.7541 401.271L-65.0983 401.783L-65.0983 392.783ZM-65.0983 402.806L6.91191 402.524L6.91191 424.317L-65.0983 424.599L-65.0983 402.806Z" fill="#7C3CB4" fill-opacity="0.47"/>
<path d="M174.374 391.372C174.364 390.987 174.243 390.613 174.027 390.298C173.811 389.983 173.509 389.74 173.159 389.6C172.81 389.46 172.427 389.429 172.06 389.51C171.693 389.592 171.357 389.782 171.095 390.058C170.833 390.334 170.656 390.683 170.587 391.062C170.517 391.44 170.558 391.831 170.704 392.186C170.85 392.541 171.095 392.844 171.408 393.057C171.72 393.27 172.088 393.383 172.463 393.383C172.718 393.381 172.97 393.327 173.204 393.224C173.438 393.122 173.65 392.973 173.828 392.786C174.005 392.599 174.145 392.377 174.239 392.135C174.332 391.892 174.378 391.633 174.374 391.372Z" fill="#7C3CB4" fill-opacity="0.47"/>
</svg>
