<svg width="241" height="57" viewBox="0 0 241 57" fill="none" xmlns="http://www.w3.org/2000/svg">
<rect y="0.87793" width="56" height="56" rx="28" fill="white"/>
<rect x="0.5" y="1.37793" width="55" height="55" rx="27.5" stroke="white" stroke-opacity="0.65"/>
<path d="M25 20.6279C25 19.4092 25.9844 18.3779 27.25 18.3779H28.75C29.9688 18.3779 31 19.4092 31 20.6279V37.1279C31 38.3936 29.9688 39.3779 28.75 39.3779H27.25C25.9844 39.3779 25 38.3936 25 37.1279V20.6279ZM17.5 29.6279C17.5 28.4092 18.4844 27.3779 19.75 27.3779H21.25C22.4688 27.3779 23.5 28.4092 23.5 29.6279V37.1279C23.5 38.3936 22.4688 39.3779 21.25 39.3779H19.75C18.4844 39.3779 17.5 38.3936 17.5 37.1279V29.6279ZM36.25 21.3779C37.4688 21.3779 38.5 22.4092 38.5 23.6279V37.1279C38.5 38.3936 37.4688 39.3779 36.25 39.3779H34.75C33.4844 39.3779 32.5 38.3936 32.5 37.1279V23.6279C32.5 22.4092 33.4844 21.3779 34.75 21.3779H36.25Z" fill="black"/>
<path opacity="0.3" d="M240.707 29.585C241.098 29.1945 241.098 28.5613 240.707 28.1708L234.343 21.8069C233.953 21.4163 233.319 21.4163 232.929 21.8069C232.538 22.1974 232.538 22.8306 232.929 23.2211L238.586 28.8779L232.929 34.5348C232.538 34.9253 232.538 35.5585 232.929 35.949C233.319 36.3395 233.953 36.3395 234.343 35.949L240.707 29.585ZM88 28.8779V29.8779H90.9231V28.8779V27.8779H88V28.8779ZM96.7692 28.8779V29.8779H102.615V28.8779V27.8779H96.7692V28.8779ZM108.462 28.8779V29.8779H114.308V28.8779V27.8779H108.462V28.8779ZM120.154 28.8779V29.8779H126V28.8779V27.8779H120.154V28.8779ZM131.846 28.8779V29.8779H137.692V28.8779V27.8779H131.846V28.8779ZM143.538 28.8779V29.8779H149.385V28.8779V27.8779H143.538V28.8779ZM155.231 28.8779V29.8779H161.077V28.8779V27.8779H155.231V28.8779ZM166.923 28.8779V29.8779H172.769V28.8779V27.8779H166.923V28.8779ZM178.615 28.8779V29.8779H184.462V28.8779V27.8779H178.615V28.8779ZM190.308 28.8779V29.8779H196.154V28.8779V27.8779H190.308V28.8779ZM202 28.8779V29.8779H207.846V28.8779V27.8779H202V28.8779ZM213.692 28.8779V29.8779H219.538V28.8779V27.8779H213.692V28.8779ZM225.385 28.8779V29.8779H231.231V28.8779V27.8779H225.385V28.8779ZM237.077 28.8779V29.8779H240V28.8779V27.8779H237.077V28.8779Z" fill="white"/>
</svg>
