<svg width="241" height="57" viewBox="0 0 241 57" fill="none" xmlns="http://www.w3.org/2000/svg">
<rect y="0.87793" width="56" height="56" rx="28" fill="white" fill-opacity="0.85"/>
<path d="M21.0625 23.0654C23.6875 20.4404 28 20.4404 30.625 23.0654C32.9688 25.4092 33.2969 29.1123 31.375 31.8311L31.3281 31.8779C30.8594 32.5811 29.9219 32.7217 29.2188 32.2529C28.5625 31.7373 28.375 30.7998 28.8906 30.1436L28.9375 30.0967C30.0156 28.5498 29.8281 26.5342 28.5156 25.2217C27.0625 23.7217 24.6719 23.7217 23.1719 25.2217L17.9219 30.4717C16.4219 31.9248 16.4219 34.3154 17.9219 35.8154C19.2344 37.1279 21.2969 37.2686 22.7969 36.2373L22.8438 36.1436C23.5469 35.6748 24.4844 35.8154 24.9531 36.5186C25.4219 37.1748 25.2812 38.1123 24.625 38.6279L24.5312 38.6748C21.8125 40.5967 18.1562 40.2686 15.8125 37.9248C13.1406 35.2998 13.1406 30.9873 15.8125 28.3623L21.0625 23.0654ZM34.8906 34.6904C32.2656 37.3623 27.9531 37.3623 25.3281 34.6904C22.9844 32.3467 22.6562 28.6904 24.5781 25.9717L24.625 25.9248C25.0938 25.2217 26.0312 25.0811 26.7344 25.5498C27.3906 26.0186 27.5781 26.9561 27.0625 27.6592L27.0156 27.7061C25.9375 29.2061 26.125 31.2686 27.4375 32.5811C28.8906 34.0811 31.2812 34.0811 32.7812 32.5811L38.0312 27.3311C39.5312 25.8311 39.5312 23.4404 38.0312 21.9873C36.7188 20.6748 34.6562 20.4873 33.1562 21.5654L33.1094 21.6123C32.4062 22.1279 31.4688 21.9404 31 21.2842C30.5312 20.6279 30.6719 19.6904 31.3281 19.1748L31.4219 19.1279C34.1406 17.2061 37.7969 17.5342 40.1406 19.8779C42.8125 22.5029 42.8125 26.8154 40.1406 29.4404L34.8906 34.6904Z" fill="black"/>
<path opacity="0.3" d="M240.707 29.585C241.098 29.1945 241.098 28.5613 240.707 28.1708L234.343 21.8069C233.953 21.4163 233.319 21.4163 232.929 21.8069C232.538 22.1974 232.538 22.8306 232.929 23.2211L238.586 28.8779L232.929 34.5348C232.538 34.9253 232.538 35.5585 232.929 35.949C233.319 36.3395 233.953 36.3395 234.343 35.949L240.707 29.585ZM88 28.8779V29.8779H90.9231V28.8779V27.8779H88V28.8779ZM96.7692 28.8779V29.8779H102.615V28.8779V27.8779H96.7692V28.8779ZM108.462 28.8779V29.8779H114.308V28.8779V27.8779H108.462V28.8779ZM120.154 28.8779V29.8779H126V28.8779V27.8779H120.154V28.8779ZM131.846 28.8779V29.8779H137.692V28.8779V27.8779H131.846V28.8779ZM143.538 28.8779V29.8779H149.385V28.8779V27.8779H143.538V28.8779ZM155.231 28.8779V29.8779H161.077V28.8779V27.8779H155.231V28.8779ZM166.923 28.8779V29.8779H172.769V28.8779V27.8779H166.923V28.8779ZM178.615 28.8779V29.8779H184.462V28.8779V27.8779H178.615V28.8779ZM190.308 28.8779V29.8779H196.154V28.8779V27.8779H190.308V28.8779ZM202 28.8779V29.8779H207.846V28.8779V27.8779H202V28.8779ZM213.692 28.8779V29.8779H219.538V28.8779V27.8779H213.692V28.8779ZM225.385 28.8779V29.8779H231.231V28.8779V27.8779H225.385V28.8779ZM237.077 28.8779V29.8779H240V28.8779V27.8779H237.077V28.8779Z" fill="white"/>
</svg>
