<svg width="241" height="57" viewBox="0 0 241 57" fill="none" xmlns="http://www.w3.org/2000/svg">
<rect y="0.87793" width="56" height="56" rx="28" fill="white"/>
<rect x="0.5" y="1.37793" width="55" height="55" rx="27.5" stroke="white" stroke-opacity="0.65"/>
<path d="M40 28.8779C40 35.5342 34.6094 40.8779 28 40.8779C21.3438 40.8779 16 35.5342 16 28.8779C16 22.2686 21.3438 16.8779 28 16.8779C34.6094 16.8779 40 22.2686 40 28.8779ZM18.6719 25.9248L19.1406 26.7217C19.5156 27.3779 20.125 27.8936 20.9219 28.1279L23.5938 28.8779C24.4375 29.1123 25 29.8623 25 30.7061V32.5811C25 33.0967 25.2812 33.5654 25.75 33.7529C26.1719 33.9873 26.5 34.4561 26.5 34.9717V36.7998C26.5 37.5498 27.1562 38.0654 27.8594 37.8779C28.6562 37.6436 29.2188 37.0342 29.4062 36.2842L29.5469 35.7686C29.7344 34.9717 30.25 34.3154 30.9531 33.8936L31.3281 33.6592C32.0312 33.2842 32.5 32.5342 32.5 31.7373V31.3154C32.5 30.7529 32.2188 30.1436 31.7969 29.7217L31.6562 29.5811C31.2344 29.1592 30.625 28.8779 30.0625 28.8779H28C27.4844 28.8779 26.9688 28.7842 26.5469 28.5029L24.9062 27.5654C24.7188 27.4717 24.5781 27.2842 24.4844 27.0498C24.3438 26.6279 24.5312 26.1123 24.9531 25.9248L25.2344 25.7842C25.5625 25.5967 25.8906 25.5967 26.2188 25.6904L27.3438 26.0654C27.7188 26.2061 28.1406 26.0186 28.375 25.6904C28.5625 25.3623 28.5625 24.9404 28.2812 24.6123L27.6719 23.8623C27.2031 23.2998 27.2031 22.5029 27.6719 21.9404L28.4219 21.0967C28.8438 20.5811 28.8906 19.9248 28.5625 19.3623L28.4688 19.1748C28.2812 19.1748 28.1406 19.1279 28 19.1279C23.6406 19.1279 19.9375 21.9873 18.6719 25.9248ZM36.4844 24.1436L35.3125 24.6123C34.5625 24.9404 34.1875 25.7373 34.4219 26.4873L35.2188 28.8779C35.3594 29.3467 35.7812 29.7217 36.2969 29.8623L37.6562 30.1904C37.7031 29.7686 37.75 29.3467 37.75 28.8779C37.75 27.1904 37.2812 25.5498 36.4844 24.1436Z" fill="black"/>
<path opacity="0.3" d="M240.707 29.585C241.098 29.1945 241.098 28.5613 240.707 28.1708L234.343 21.8069C233.953 21.4163 233.319 21.4163 232.929 21.8069C232.538 22.1974 232.538 22.8306 232.929 23.2211L238.586 28.8779L232.929 34.5348C232.538 34.9253 232.538 35.5585 232.929 35.949C233.319 36.3395 233.953 36.3395 234.343 35.949L240.707 29.585ZM88 28.8779V29.8779H90.9231V28.8779V27.8779H88V28.8779ZM96.7692 28.8779V29.8779H102.615V28.8779V27.8779H96.7692V28.8779ZM108.462 28.8779V29.8779H114.308V28.8779V27.8779H108.462V28.8779ZM120.154 28.8779V29.8779H126V28.8779V27.8779H120.154V28.8779ZM131.846 28.8779V29.8779H137.692V28.8779V27.8779H131.846V28.8779ZM143.538 28.8779V29.8779H149.385V28.8779V27.8779H143.538V28.8779ZM155.231 28.8779V29.8779H161.077V28.8779V27.8779H155.231V28.8779ZM166.923 28.8779V29.8779H172.769V28.8779V27.8779H166.923V28.8779ZM178.615 28.8779V29.8779H184.462V28.8779V27.8779H178.615V28.8779ZM190.308 28.8779V29.8779H196.154V28.8779V27.8779H190.308V28.8779ZM202 28.8779V29.8779H207.846V28.8779V27.8779H202V28.8779ZM213.692 28.8779V29.8779H219.538V28.8779V27.8779H213.692V28.8779ZM225.385 28.8779V29.8779H231.231V28.8779V27.8779H225.385V28.8779ZM237.077 28.8779V29.8779H240V28.8779V27.8779H237.077V28.8779Z" fill="white"/>
</svg>
