<svg width="198" height="372" viewBox="0 0 198 372" fill="none" xmlns="http://www.w3.org/2000/svg">
<path d="M5.0249 122.517V0" stroke="#3853D6" stroke-opacity="0.27" stroke-width="1.5" stroke-miterlimit="10"/>
<path d="M12.731 122.979L27.6913 1.28638" stroke="#3853D6" stroke-opacity="0.27" stroke-width="1.5" stroke-miterlimit="10"/>
<path d="M20.3369 124.289L50.0318 5.16968" stroke="#3853D6" stroke-opacity="0.27" stroke-width="1.5" stroke-miterlimit="10"/>
<path d="M27.7417 126.473L71.7443 11.5769" stroke="#3853D6" stroke-opacity="0.27" stroke-width="1.5" stroke-miterlimit="10"/>
<path d="M34.7949 129.459L92.553 20.3872" stroke="#3853D6" stroke-opacity="0.27" stroke-width="1.5" stroke-miterlimit="10"/>
<path d="M41.4473 133.245L112.107 31.5273" stroke="#3853D6" stroke-opacity="0.27" stroke-width="1.5" stroke-miterlimit="10"/>
<path d="M47.5967 137.783L130.18 44.8274" stroke="#3853D6" stroke-opacity="0.27" stroke-width="1.5" stroke-miterlimit="10"/>
<path d="M53.144 142.977L146.496 60.0938" stroke="#3853D6" stroke-opacity="0.27" stroke-width="1.5" stroke-miterlimit="10"/>
<path d="M58.0391 148.754L160.829 77.1074" stroke="#3853D6" stroke-opacity="0.27" stroke-width="1.5" stroke-miterlimit="10"/>
<path d="M62.1807 155.064L173.003 95.6501" stroke="#3853D6" stroke-opacity="0.27" stroke-width="1.5" stroke-miterlimit="10"/>
<path d="M65.519 161.811L182.817 115.43" stroke="#3853D6" stroke-opacity="0.27" stroke-width="1.5" stroke-miterlimit="10"/>
<path d="M68.0044 168.874L190.147 136.206" stroke="#3853D6" stroke-opacity="0.27" stroke-width="1.5" stroke-miterlimit="10"/>
<path d="M69.6362 176.179L194.892 157.685" stroke="#3853D6" stroke-opacity="0.27" stroke-width="1.5" stroke-miterlimit="10"/>
<path d="M70.3389 183.606L197 179.529" stroke="#3853D6" stroke-opacity="0.27" stroke-width="1.5" stroke-miterlimit="10"/>
<path d="M70.1382 191.082L196.398 201.469" stroke="#3853D6" stroke-opacity="0.27" stroke-width="1.5" stroke-miterlimit="10"/>
<path d="M69.0332 198.46L193.134 223.191" stroke="#3853D6" stroke-opacity="0.27" stroke-width="1.5" stroke-miterlimit="10"/>
<path d="M67.0254 205.668L187.261 244.404" stroke="#3853D6" stroke-opacity="0.27" stroke-width="1.5" stroke-miterlimit="10"/>
<path d="M64.1636 212.61L178.801 264.791" stroke="#3853D6" stroke-opacity="0.27" stroke-width="1.5" stroke-miterlimit="10"/>
<path d="M60.4492 219.163L167.958 284.062" stroke="#3853D6" stroke-opacity="0.27" stroke-width="1.5" stroke-miterlimit="10"/>
<path d="M55.981 225.254L154.805 301.949" stroke="#3853D6" stroke-opacity="0.27" stroke-width="1.5" stroke-miterlimit="10"/>
<path d="M50.8101 230.788L139.568 318.235" stroke="#3853D6" stroke-opacity="0.27" stroke-width="1.5" stroke-miterlimit="10"/>
<path d="M44.9863 235.691L122.474 332.651" stroke="#3853D6" stroke-opacity="0.27" stroke-width="1.5" stroke-miterlimit="10"/>
<path d="M38.6104 239.914L103.698 345.029" stroke="#3853D6" stroke-opacity="0.27" stroke-width="1.5" stroke-miterlimit="10"/>
<path d="M31.7578 243.36L83.5669 355.174" stroke="#3853D6" stroke-opacity="0.27" stroke-width="1.5" stroke-miterlimit="10"/>
<path d="M24.5288 246.006L62.3565 362.941" stroke="#3853D6" stroke-opacity="0.27" stroke-width="1.5" stroke-miterlimit="10"/>
<path d="M17.0234 247.802L40.3175 368.256" stroke="#3853D6" stroke-opacity="0.27" stroke-width="1.5" stroke-miterlimit="10"/>
<path d="M9.36768 248.748L17.8017 370.999" stroke="#3853D6" stroke-opacity="0.27" stroke-width="1.5" stroke-miterlimit="10"/>
<path d="M1.6364 248.797L-4.91504 371.169" stroke="#3853D6" stroke-opacity="0.27" stroke-width="1.5" stroke-miterlimit="10"/>
</svg>
